<svg id="Layer_1" data-name="Layer 1" xmlns="http://www.w3.org/2000/svg" xmlns:xlink="http://www.w3.org/1999/xlink" viewBox="0 0 311.48 327.13"><defs><style>.cls-1,.cls-2,.cls-3,.cls-4,.cls-5{fill-rule:evenodd;}.cls-1{fill:url(#New_Gradient_Swatch_1);}.cls-2{fill:url(#New_Gradient_Swatch_9);}.cls-3{fill:url(#New_Gradient_Swatch_9-2);}.cls-4{fill:url(#New_Gradient_Swatch_3);}.cls-5{fill:url(#New_Gradient_Swatch_3-2);}</style><linearGradient id="New_Gradient_Swatch_1" x1="185" y1="289.79" x2="185" y2="20.22" gradientUnits="userSpaceOnUse"><stop offset="0.1" stop-color="#694997"/><stop offset="0.4" stop-color="#e13e8f"/><stop offset="0.6" stop-color="#df2f37"/><stop offset="0.9" stop-color="#fcc03d"/></linearGradient><linearGradient id="New_Gradient_Swatch_9" x1="120.64" y1="37.63" x2="120.64" y2="242" gradientUnits="userSpaceOnUse"><stop offset="0" stop-color="#40368c"/><stop offset="0.5" stop-color="#3ab2e7"/><stop offset="1" stop-color="#fff"/></linearGradient><linearGradient id="New_Gradient_Swatch_9-2" x1="120.53" y1="85.96" x2="120.53" y2="307.53" xlink:href="#New_Gradient_Swatch_9"/><linearGradient id="New_Gradient_Swatch_3" x1="553.58" y1="508.91" x2="104.08" y2="130.38" gradientUnits="userSpaceOnUse"><stop offset="0" stop-color="#fff"/><stop offset="1" stop-color="#fff" stop-opacity="0"/></linearGradient><linearGradient id="New_Gradient_Swatch_3-2" x1="-161.14" y1="159.86" x2="75.39" y2="157.98" xlink:href="#New_Gradient_Swatch_3"/></defs><path class="cls-1" d="M238.49,183.81c-126,105.52-169.95-42.47-81.25-100.12,36.88-24,90.17-30.93,76.12,37.12,27.91-81.21-54.44-72.48-97-45A122.79,122.79,0,0,0,81,166.24c-8.88,86.37,83.18,140,171.08,79.9C314.79,203.3,290.86,140,238.49,183.81Z"/><path class="cls-2" d="M80.2,139.53a125.07,125.07,0,0,0-6,40.73,266.17,266.17,0,0,1-39.57-11.55c-46.42-17.37-17.61-60.13,27.48-37A150.18,150.18,0,0,0,80.2,139.53ZM211.63,73.89c43.33,18.31-16.42,78.7-92.72,73.68-2.63,12-2.73,25.09,1,36.84C222.15,181,255.05,85.79,211.63,73.89Z"/><path class="cls-3" d="M79.31,142.42a125.23,125.23,0,0,0-5.15,37.84,266.17,266.17,0,0,1-39.57-11.55c-40.18-15-24-49.2,10.32-43C56.15,127.76,66.55,135,79.31,142.42Zm38,15.93a69.17,69.17,0,0,0,2.61,26.07c69.59-2.33,107.05-47.13,110.22-79.29C223.25,152.32,158.14,168.09,117.27,158.35Z"/><path class="cls-4" d="M253.58,210.43c-65.51,64.79-168.5,41.6-160.8-46.06,3.91-44.49,33.54-79.61,65.44-96.85a119.45,119.45,0,0,0-74.6,99c-2.91,28.36,5.2,56.18,25.75,76.43C136.24,269.4,175.05,274.5,210,263.86c28.43-8.66,64.77-31.14,74.67-60.46C295,173,262.92,201.19,253.58,210.43Z"/><path class="cls-5" d="M13.92,141.33c-3,12.51,11.84,21.31,21.58,24.94a266,266,0,0,0,36,10.78A123.17,123.17,0,0,1,73,158.85a181.41,181.41,0,0,1-30.16-8.37C34.69,147.44,15.53,134.61,13.92,141.33Z"/></svg>