<svg id="Layer_1" data-name="Layer 1" xmlns="http://www.w3.org/2000/svg" viewBox="0 0 311.48 327.13"><defs><style>.cls-1{fill:#3c3c3b;fill-rule:evenodd;}</style></defs><path class="cls-1" d="M248.64,188C114.87,300,68.19,142.85,162.36,81.62c39.17-25.45,95.74-32.82,80.82,39.43,29.64-86.23-57.79-77-103-47.78a130.39,130.39,0,0,0-58.7,96C72,261,169.78,317.9,263.11,254.11,329.65,208.63,304.25,141.38,248.64,188Z"/><path class="cls-1" d="M80.57,140.92a133,133,0,0,0-6.42,43.25,281.82,281.82,0,0,1-42-12.27c-49.29-18.43-18.7-63.83,29.18-39.3A158.48,158.48,0,0,0,80.57,140.92Zm139.54-69.7c46,19.45-17.42,83.57-98.44,78.24-2.8,12.7-2.9,26.65,1,39.11C231.29,184.93,266.22,83.87,220.11,71.22Z"/></svg>