<svg id="Layer_1" data-name="Layer 1" xmlns="http://www.w3.org/2000/svg" xmlns:xlink="http://www.w3.org/1999/xlink" viewBox="0 0 394.43 366.26"><defs><style>.cls-1{fill:#3c3c3b;}.cls-2,.cls-3,.cls-4,.cls-5,.cls-6{fill-rule:evenodd;}.cls-2{fill:url(#New_Gradient_Swatch_1);}.cls-3{fill:url(#New_Gradient_Swatch_9);}.cls-4{fill:url(#New_Gradient_Swatch_9-2);}.cls-5{fill:url(#New_Gradient_Swatch_3);}.cls-6{fill:url(#New_Gradient_Swatch_3-2);}</style><linearGradient id="New_Gradient_Swatch_1" x1="228.46" y1="235.71" x2="228.46" y2="-6.68" gradientUnits="userSpaceOnUse"><stop offset="0.1" stop-color="#694997"/><stop offset="0.4" stop-color="#e13e8f"/><stop offset="0.6" stop-color="#df2f37"/><stop offset="0.9" stop-color="#fcc03d"/></linearGradient><linearGradient id="New_Gradient_Swatch_9" x1="170.58" y1="8.97" x2="170.58" y2="192.74" gradientUnits="userSpaceOnUse"><stop offset="0" stop-color="#40368c"/><stop offset="0.5" stop-color="#3ab2e7"/><stop offset="1" stop-color="#fff"/></linearGradient><linearGradient id="New_Gradient_Swatch_9-2" x1="170.49" y1="52.43" x2="170.49" y2="251.66" xlink:href="#New_Gradient_Swatch_9"/><linearGradient id="New_Gradient_Swatch_3" x1="559.88" y1="432.74" x2="155.69" y2="92.37" gradientUnits="userSpaceOnUse"><stop offset="0" stop-color="#fff"/><stop offset="1" stop-color="#fff" stop-opacity="0"/></linearGradient><linearGradient id="New_Gradient_Swatch_3-2" x1="-82.79" y1="118.88" x2="129.89" y2="117.19" xlink:href="#New_Gradient_Swatch_3"/></defs><path class="cls-1" d="M90.9,324a2.76,2.76,0,0,1,0,.44.72.72,0,0,1-.08.3.42.42,0,0,1-.15.17.41.41,0,0,1-.19.05H85.61v14.91a.35.35,0,0,1,0,.18.34.34,0,0,1-.19.13,1.84,1.84,0,0,1-.35.08,4.11,4.11,0,0,1-.55,0,4.16,4.16,0,0,1-.54,0,1.64,1.64,0,0,1-.36-.08.34.34,0,0,1-.19-.13.27.27,0,0,1,0-.18V324.93H78.49a.41.41,0,0,1-.19-.05.34.34,0,0,1-.14-.17.89.89,0,0,1-.09-.3,2.76,2.76,0,0,1,0-.44,2.85,2.85,0,0,1,0-.44,1,1,0,0,1,.09-.31.37.37,0,0,1,.14-.18.41.41,0,0,1,.19-.05h12a.41.41,0,0,1,.19.05.45.45,0,0,1,.15.18.82.82,0,0,1,.08.31A2.85,2.85,0,0,1,90.9,324Z"/><path class="cls-1" d="M103,339.24a2.58,2.58,0,0,1,0,.42.66.66,0,0,1-.09.3.42.42,0,0,1-.15.17.41.41,0,0,1-.19.05H94.24a1,1,0,0,1-.58-.2.87.87,0,0,1-.27-.73V323.92a.83.83,0,0,1,.27-.72.92.92,0,0,1,.58-.21h8.15a.46.46,0,0,1,.2.05.54.54,0,0,1,.14.18,1.71,1.71,0,0,1,.08.29,2.81,2.81,0,0,1,0,.45,2.58,2.58,0,0,1,0,.42,1.3,1.3,0,0,1-.08.29.49.49,0,0,1-.14.17.46.46,0,0,1-.2.05H95.67v5.39h5.77a.33.33,0,0,1,.19.06.5.5,0,0,1,.15.17,1.3,1.3,0,0,1,.08.29,2.85,2.85,0,0,1,0,.44,2.37,2.37,0,0,1,0,.41,1.2,1.2,0,0,1-.08.28.36.36,0,0,1-.15.15.32.32,0,0,1-.19.05H95.67v6.15h6.82a.33.33,0,0,1,.19.06.39.39,0,0,1,.15.16.62.62,0,0,1,.09.29A2.81,2.81,0,0,1,103,339.24Z"/><path class="cls-1" d="M118.15,337.75c0,.14,0,.27,0,.37a1.78,1.78,0,0,1,0,.28,1,1,0,0,1-.08.21,1.14,1.14,0,0,1-.19.23,4.83,4.83,0,0,1-.56.41,6.94,6.94,0,0,1-1.06.53,8.2,8.2,0,0,1-3.23.61,7.85,7.85,0,0,1-3-.55,6.13,6.13,0,0,1-2.3-1.65,7.4,7.4,0,0,1-1.46-2.69,13.54,13.54,0,0,1,0-7.5,8.24,8.24,0,0,1,1.54-2.84,6.72,6.72,0,0,1,2.39-1.77,7.48,7.48,0,0,1,3.07-.61,6.92,6.92,0,0,1,1.45.14,9.24,9.24,0,0,1,1.31.35,5.77,5.77,0,0,1,1.06.49,3.71,3.71,0,0,1,.64.46,2.1,2.1,0,0,1,.24.27,1.13,1.13,0,0,1,.08.22,1.86,1.86,0,0,1,0,.3,2.49,2.49,0,0,1,0,.41,3,3,0,0,1,0,.45,1.53,1.53,0,0,1-.08.31.48.48,0,0,1-.13.19.28.28,0,0,1-.18.06,1,1,0,0,1-.52-.26,9.15,9.15,0,0,0-.86-.57A6.7,6.7,0,0,0,115,325a5.72,5.72,0,0,0-1.81-.26,4.62,4.62,0,0,0-2.09.46,4.25,4.25,0,0,0-1.61,1.35,6.54,6.54,0,0,0-1,2.17,10.81,10.81,0,0,0-.37,2.93,10.53,10.53,0,0,0,.36,2.89,5.87,5.87,0,0,0,1,2.1,4.13,4.13,0,0,0,1.63,1.27,5.19,5.19,0,0,0,2.17.44,5.7,5.7,0,0,0,1.8-.26,7.06,7.06,0,0,0,1.31-.56c.36-.21.65-.4.89-.57a1.12,1.12,0,0,1,.54-.25.25.25,0,0,1,.16,0,.3.3,0,0,1,.11.15,1.14,1.14,0,0,1,.06.32C118.14,337.38,118.15,337.55,118.15,337.75Z"/><path class="cls-1" d="M133.56,339.84a.27.27,0,0,1-.05.18.34.34,0,0,1-.19.13,1.67,1.67,0,0,1-.35.08,4,4,0,0,1-.54,0,4,4,0,0,1-.55,0,1.84,1.84,0,0,1-.35-.08.34.34,0,0,1-.19-.13.35.35,0,0,1-.05-.18v-7.63h-7.82v7.63a.28.28,0,0,1-.06.18.31.31,0,0,1-.18.13,2,2,0,0,1-.36.08,4.11,4.11,0,0,1-.55,0,4.16,4.16,0,0,1-.54,0,2,2,0,0,1-.36-.08.34.34,0,0,1-.19-.13.35.35,0,0,1,0-.18v-16.5a.36.36,0,0,1,0-.19.4.4,0,0,1,.19-.13l.36-.08a4.16,4.16,0,0,1,.54,0,4.11,4.11,0,0,1,.55,0l.36.08a.37.37,0,0,1,.18.13.29.29,0,0,1,.06.19v6.88h7.82v-6.88a.36.36,0,0,1,.05-.19.4.4,0,0,1,.19-.13l.35-.08a4,4,0,0,1,.55,0,4,4,0,0,1,.54,0,2.7,2.7,0,0,1,.35.08.4.4,0,0,1,.19.13.29.29,0,0,1,.05.19Z"/><path class="cls-1" d="M151.13,339.24a1,1,0,0,1-.09.45.92.92,0,0,1-.24.31.9.9,0,0,1-.32.17,1.49,1.49,0,0,1-.36.05h-.75a2.38,2.38,0,0,1-.63-.07,1.48,1.48,0,0,1-.51-.27,3.1,3.1,0,0,1-.48-.52,7.3,7.3,0,0,1-.51-.85L142,328.73c-.27-.51-.55-1-.83-1.59s-.54-1.09-.78-1.61h0c0,.63,0,1.29,0,2s0,1.32,0,2v10.38a.32.32,0,0,1-.06.18.35.35,0,0,1-.19.13,1.84,1.84,0,0,1-.35.08,4.11,4.11,0,0,1-.55,0,4,4,0,0,1-.55,0,1.84,1.84,0,0,1-.35-.08.42.42,0,0,1-.18-.13.32.32,0,0,1-.06-.18V324a.86.86,0,0,1,.31-.75,1.07,1.07,0,0,1,.65-.23h1.13a2.52,2.52,0,0,1,.66.07,1.17,1.17,0,0,1,.48.22,1.83,1.83,0,0,1,.41.42,4.49,4.49,0,0,1,.42.68l4,7.55.72,1.35c.23.44.46.87.67,1.3l.64,1.25c.21.41.41.83.62,1.24h0c0-.7,0-1.42,0-2.18s0-1.49,0-2.19v-9.32a.3.3,0,0,1,.06-.18.49.49,0,0,1,.19-.14,1,1,0,0,1,.35-.08,4.24,4.24,0,0,1,.57,0,4.11,4.11,0,0,1,.53,0,1,1,0,0,1,.35.08.54.54,0,0,1,.18.14.3.3,0,0,1,.06.18Z"/><path class="cls-1" d="M170.1,331.39a13.28,13.28,0,0,1-.49,3.76,8,8,0,0,1-1.47,2.85,6.44,6.44,0,0,1-2.45,1.8,8.69,8.69,0,0,1-3.44.63,9,9,0,0,1-3.36-.57,6,6,0,0,1-2.33-1.68,7.15,7.15,0,0,1-1.38-2.74,14.2,14.2,0,0,1-.45-3.76,13,13,0,0,1,.49-3.7,7.88,7.88,0,0,1,1.47-2.82,6.63,6.63,0,0,1,2.46-1.79,9.8,9.8,0,0,1,6.75-.06,6,6,0,0,1,2.35,1.67,7,7,0,0,1,1.39,2.71A13.37,13.37,0,0,1,170.1,331.39Zm-2.42.16a13,13,0,0,0-.26-2.72,6.26,6.26,0,0,0-.86-2.18,4.07,4.07,0,0,0-1.61-1.44,5.38,5.38,0,0,0-2.5-.52,5.09,5.09,0,0,0-2.49.56,4.7,4.7,0,0,0-1.64,1.49,6.14,6.14,0,0,0-.9,2.17,12.29,12.29,0,0,0-.27,2.61,14.26,14.26,0,0,0,.25,2.79,6.28,6.28,0,0,0,.85,2.2,4.1,4.1,0,0,0,1.6,1.43,5.47,5.47,0,0,0,2.51.51,5.22,5.22,0,0,0,2.52-.55,4.7,4.7,0,0,0,1.65-1.51,6.56,6.56,0,0,0,.89-2.2A13.13,13.13,0,0,0,167.68,331.55Z"/><path class="cls-1" d="M182.63,339.19a2.76,2.76,0,0,1,0,.44.94.94,0,0,1-.08.31.45.45,0,0,1-.15.18.37.37,0,0,1-.21.06h-7.6a1,1,0,0,1-.57-.2.87.87,0,0,1-.28-.73V323.34a.29.29,0,0,1,.06-.19A.33.33,0,0,1,174,323l.36-.08a5.06,5.06,0,0,1,1.1,0l.35.08a.4.4,0,0,1,.19.13.36.36,0,0,1,.05.19V338.2h6.16a.37.37,0,0,1,.21.06.5.5,0,0,1,.15.17.82.82,0,0,1,.08.3A3,3,0,0,1,182.63,339.19Z"/><path class="cls-1" d="M199.56,331.39a13.26,13.26,0,0,1-.5,3.76A7.85,7.85,0,0,1,197.6,338a6.47,6.47,0,0,1-2.46,1.8,8.69,8.69,0,0,1-3.44.63,8.93,8.93,0,0,1-3.35-.57,6.06,6.06,0,0,1-2.34-1.68,7.14,7.14,0,0,1-1.37-2.74,13.77,13.77,0,0,1-.46-3.76,13.31,13.31,0,0,1,.49-3.7,7.74,7.74,0,0,1,1.48-2.82,6.55,6.55,0,0,1,2.46-1.79,8.69,8.69,0,0,1,3.44-.63,8.79,8.79,0,0,1,3.31.57A5.94,5.94,0,0,1,197.7,325a7,7,0,0,1,1.4,2.71A13.76,13.76,0,0,1,199.56,331.39Zm-2.42.16a13.65,13.65,0,0,0-.26-2.72,6.26,6.26,0,0,0-.86-2.18,4.1,4.1,0,0,0-1.62-1.44,5.34,5.34,0,0,0-2.49-.52,5.16,5.16,0,0,0-2.5.56,4.67,4.67,0,0,0-1.63,1.49,6.34,6.34,0,0,0-.91,2.17,12.29,12.29,0,0,0-.27,2.61,15.07,15.07,0,0,0,.25,2.79,6.28,6.28,0,0,0,.85,2.2,4.1,4.1,0,0,0,1.6,1.43,5.54,5.54,0,0,0,2.52.51,5.22,5.22,0,0,0,2.52-.55,4.58,4.58,0,0,0,1.64-1.51,6.17,6.17,0,0,0,.89-2.2A12.43,12.43,0,0,0,197.14,331.55Z"/><path class="cls-1" d="M216.08,325.33a3,3,0,0,1,0,.44,1.65,1.65,0,0,1-.08.32.38.38,0,0,1-.13.18.31.31,0,0,1-.18.05,1.2,1.2,0,0,1-.53-.25,9,9,0,0,0-1-.56,8.7,8.7,0,0,0-1.49-.55,7.4,7.4,0,0,0-2.07-.26,6.18,6.18,0,0,0-2.55.52,5.58,5.58,0,0,0-1.91,1.44,6.39,6.39,0,0,0-1.2,2.18,9.32,9.32,0,0,0,0,5.66,6.19,6.19,0,0,0,1.27,2.15,5.3,5.3,0,0,0,1.93,1.33,6.56,6.56,0,0,0,2.46.45,7.61,7.61,0,0,0,1.62-.19,6.46,6.46,0,0,0,1.52-.58v-5h-4a.37.37,0,0,1-.34-.23,1.72,1.72,0,0,1-.11-.7,2.63,2.63,0,0,1,0-.43,1.08,1.08,0,0,1,.08-.3.45.45,0,0,1,.14-.16.33.33,0,0,1,.2-.05h5.46a.79.79,0,0,1,.3.05.8.8,0,0,1,.26.16.77.77,0,0,1,.19.29,1.4,1.4,0,0,1,.06.43v6.55a1.48,1.48,0,0,1-.11.59,1,1,0,0,1-.51.45,11.74,11.74,0,0,1-3.57,1,12,12,0,0,1-1.32.08,9.5,9.5,0,0,1-3.56-.62,7.2,7.2,0,0,1-2.65-1.76,7.68,7.68,0,0,1-1.65-2.73,10.31,10.31,0,0,1-.58-3.56,10.61,10.61,0,0,1,.62-3.71,8,8,0,0,1,1.74-2.83,7.64,7.64,0,0,1,2.7-1.81,9.12,9.12,0,0,1,3.49-.65,9.75,9.75,0,0,1,1.84.17,11.72,11.72,0,0,1,1.54.41,6,6,0,0,1,1.13.5,4.06,4.06,0,0,1,.63.45,1,1,0,0,1,.24.4A2.64,2.64,0,0,1,216.08,325.33Z"/><path class="cls-1" d="M225.81,333.5v6.34a.35.35,0,0,1-.05.18.34.34,0,0,1-.19.13,2,2,0,0,1-.35.08,4.22,4.22,0,0,1-.55,0,4,4,0,0,1-.54,0,2,2,0,0,1-.36-.08.31.31,0,0,1-.19-.13.28.28,0,0,1-.06-.18V333.5l-4.86-9.7a1.84,1.84,0,0,1-.18-.48.26.26,0,0,1,.07-.26.53.53,0,0,1,.36-.12,6.21,6.21,0,0,1,.69,0,5.55,5.55,0,0,1,.65,0,1.71,1.71,0,0,1,.39.07.51.51,0,0,1,.22.13.93.93,0,0,1,.14.22l2.38,4.94c.22.47.44,1,.66,1.48s.44,1,.67,1.55h0q.3-.75.63-1.5c.21-.51.43-1,.65-1.49l2.39-5a.71.71,0,0,1,.12-.23.43.43,0,0,1,.2-.14,1.26,1.26,0,0,1,.35-.07,4.45,4.45,0,0,1,.57,0,7.2,7.2,0,0,1,.75,0,.83.83,0,0,1,.38.13.27.27,0,0,1,.07.27,1.76,1.76,0,0,1-.18.46Z"/><path class="cls-1" d="M252.66,325.33c0,.17,0,.31,0,.44a1.65,1.65,0,0,1-.08.32.34.34,0,0,1-.14.18.26.26,0,0,1-.17.05,1.2,1.2,0,0,1-.53-.25,9,9,0,0,0-1-.56,8.7,8.7,0,0,0-1.49-.55,7.4,7.4,0,0,0-2.07-.26,6.11,6.11,0,0,0-2.55.52,5.58,5.58,0,0,0-1.91,1.44,6.07,6.07,0,0,0-1.2,2.18,8.31,8.31,0,0,0-.42,2.73,8.8,8.8,0,0,0,.45,2.93,6.35,6.35,0,0,0,1.27,2.15,5.34,5.34,0,0,0,1.94,1.33,6.53,6.53,0,0,0,2.46.45,7.45,7.45,0,0,0,1.61-.19,6.37,6.37,0,0,0,1.53-.58v-5h-4a.37.37,0,0,1-.34-.23,1.72,1.72,0,0,1-.11-.7,2.63,2.63,0,0,1,0-.43.82.82,0,0,1,.08-.3.45.45,0,0,1,.14-.16.31.31,0,0,1,.2-.05h5.46a.71.71,0,0,1,.29.05.74.74,0,0,1,.27.16.77.77,0,0,1,.19.29,1.4,1.4,0,0,1,.06.43v6.55a1.32,1.32,0,0,1-.12.59,1.07,1.07,0,0,1-.5.45,9.8,9.8,0,0,1-1,.42,10.22,10.22,0,0,1-1.26.38,9.59,9.59,0,0,1-1.32.24,11.66,11.66,0,0,1-1.31.08,9.46,9.46,0,0,1-3.56-.62A7.2,7.2,0,0,1,240.9,338a7.7,7.7,0,0,1-1.66-2.73,11.41,11.41,0,0,1,0-7.27,8,8,0,0,1,1.74-2.83,7.64,7.64,0,0,1,2.7-1.81,9.1,9.1,0,0,1,3.48-.65,9.78,9.78,0,0,1,1.85.17,11.72,11.72,0,0,1,1.54.41,6.35,6.35,0,0,1,1.13.5,4.06,4.06,0,0,1,.63.45,1,1,0,0,1,.24.4A2.64,2.64,0,0,1,252.66,325.33Z"/><path class="cls-1" d="M268.38,339.84a.34.34,0,0,1,0,.18.35.35,0,0,1-.17.14,2,2,0,0,1-.38.08l-.63,0-.57,0a1.26,1.26,0,0,1-.35-.09.42.42,0,0,1-.2-.17.71.71,0,0,1-.13-.26l-1.58-4.06c-.19-.46-.38-.88-.58-1.26a4.17,4.17,0,0,0-.71-1,2.9,2.9,0,0,0-1-.65,3.39,3.39,0,0,0-1.34-.23H259.2v7.32a.28.28,0,0,1-.06.18.34.34,0,0,1-.19.13,1.71,1.71,0,0,1-.34.08,4.28,4.28,0,0,1-.56,0,4,4,0,0,1-.54,0,2,2,0,0,1-.36-.08A.34.34,0,0,1,257,340a.35.35,0,0,1,0-.18V323.92a.81.81,0,0,1,.28-.72.91.91,0,0,1,.57-.21h3.66q.65,0,1.08,0l.78.08a6.37,6.37,0,0,1,1.76.54,4.25,4.25,0,0,1,1.28.94,3.87,3.87,0,0,1,.78,1.31,5,5,0,0,1,.26,1.63,4.67,4.67,0,0,1-.24,1.55,3.58,3.58,0,0,1-.67,1.21,4.42,4.42,0,0,1-1.05.91,7,7,0,0,1-1.37.65,3.24,3.24,0,0,1,.78.47,4.17,4.17,0,0,1,.64.68,6.24,6.24,0,0,1,.56.92q.27.52.54,1.17l1.54,3.79c.12.32.2.54.24.67A1.53,1.53,0,0,1,268.38,339.84Zm-3.44-12.08a3.11,3.11,0,0,0-.45-1.71,2.56,2.56,0,0,0-1.52-1,3.89,3.89,0,0,0-.75-.13,10.81,10.81,0,0,0-1.09,0H259.2v5.79h2.23a4.85,4.85,0,0,0,1.56-.22,3.15,3.15,0,0,0,1.1-.61,2.43,2.43,0,0,0,.64-.92A3.15,3.15,0,0,0,264.94,327.76Z"/><path class="cls-1" d="M286.09,331.39a13.28,13.28,0,0,1-.49,3.76,8,8,0,0,1-1.47,2.85,6.44,6.44,0,0,1-2.45,1.8,8.69,8.69,0,0,1-3.44.63,9,9,0,0,1-3.36-.57,6.06,6.06,0,0,1-2.34-1.68,7.28,7.28,0,0,1-1.37-2.74,14.2,14.2,0,0,1-.45-3.76,13,13,0,0,1,.49-3.7,7.88,7.88,0,0,1,1.47-2.82,6.63,6.63,0,0,1,2.46-1.79,9.8,9.8,0,0,1,6.75-.06,6,6,0,0,1,2.35,1.67,7.17,7.17,0,0,1,1.39,2.71A13.37,13.37,0,0,1,286.09,331.39Zm-2.42.16a13,13,0,0,0-.26-2.72,6.26,6.26,0,0,0-.86-2.18,4.07,4.07,0,0,0-1.61-1.44,5.41,5.41,0,0,0-2.5-.52,5.09,5.09,0,0,0-2.49.56,4.7,4.7,0,0,0-1.64,1.49,6.14,6.14,0,0,0-.9,2.17,12.28,12.28,0,0,0-.28,2.61,14.23,14.23,0,0,0,.26,2.79,6.28,6.28,0,0,0,.85,2.2,4.14,4.14,0,0,0,1.59,1.43,5.54,5.54,0,0,0,2.52.51,5.22,5.22,0,0,0,2.52-.55,4.7,4.7,0,0,0,1.65-1.51,6.56,6.56,0,0,0,.89-2.2A13.13,13.13,0,0,0,283.67,331.55Z"/><path class="cls-1" d="M302.63,333.83a7.87,7.87,0,0,1-.46,2.8,5.47,5.47,0,0,1-3.38,3.37,8.22,8.22,0,0,1-2.77.43,7.67,7.67,0,0,1-2.6-.41,5.48,5.48,0,0,1-2-1.21,5.32,5.32,0,0,1-1.29-2,7.93,7.93,0,0,1-.45-2.79V323.34a.29.29,0,0,1,.05-.19.4.4,0,0,1,.19-.13,2.92,2.92,0,0,1,.34-.08,4.17,4.17,0,0,1,.56,0,4.44,4.44,0,0,1,.55,0l.35.08a.42.42,0,0,1,.18.13.36.36,0,0,1,.05.19v10.39a6.83,6.83,0,0,0,.29,2.08,4.1,4.1,0,0,0,.84,1.48,3.54,3.54,0,0,0,1.33.89,4.83,4.83,0,0,0,1.75.3,5.19,5.19,0,0,0,1.78-.29,3.48,3.48,0,0,0,1.31-.88,3.87,3.87,0,0,0,.82-1.45,6.38,6.38,0,0,0,.29-2v-10.5a.36.36,0,0,1,.05-.19.4.4,0,0,1,.19-.13l.35-.08a4.22,4.22,0,0,1,.55,0,4.16,4.16,0,0,1,.54,0l.35.08a.42.42,0,0,1,.18.13.29.29,0,0,1,.06.19Z"/><path class="cls-1" d="M317.73,328a6.16,6.16,0,0,1-.43,2.33,4.88,4.88,0,0,1-1.22,1.77,5.37,5.37,0,0,1-1.94,1.13,8.52,8.52,0,0,1-2.74.4h-1.95v6.19a.28.28,0,0,1-.06.18.34.34,0,0,1-.19.13,1.71,1.71,0,0,1-.34.08,4.28,4.28,0,0,1-.56,0,4.22,4.22,0,0,1-.55,0,2,2,0,0,1-.35-.08.34.34,0,0,1-.19-.13.35.35,0,0,1,0-.18V324a.93.93,0,0,1,.28-.75,1,1,0,0,1,.62-.23h3.69c.37,0,.73,0,1.07.05a8.63,8.63,0,0,1,1.21.2,4.91,4.91,0,0,1,1.42.57,4.56,4.56,0,0,1,1.23,1,4.47,4.47,0,0,1,.77,1.41A5.57,5.57,0,0,1,317.73,328Zm-2.41.19a3.57,3.57,0,0,0-.39-1.75,2.68,2.68,0,0,0-1-1,3.24,3.24,0,0,0-1.2-.44,8.28,8.28,0,0,0-1.2-.09h-2.11v6.89h2.06a5,5,0,0,0,1.72-.26,3.4,3.4,0,0,0,1.15-.74,3.12,3.12,0,0,0,.7-1.13A4.17,4.17,0,0,0,315.32,328.21Z"/><path class="cls-1" d="M94.78,290.74a13.48,13.48,0,0,0,3.11,8.53,9.52,9.52,0,0,0,7.43,3.16,10.5,10.5,0,0,0,5.41-1.39,6.28,6.28,0,0,0,3-3.88h12.84a20.65,20.65,0,0,1-7.67,11.2,21.67,21.67,0,0,1-13,3.93q-23.56,0-23.56-25.67a29.92,29.92,0,0,1,1.53-9.86,21.27,21.27,0,0,1,4.46-7.57,19.27,19.27,0,0,1,7.13-4.83,26,26,0,0,1,9.67-1.68q10.92,0,16.52,7t5.61,21.07Zm19.63-7.85a12.87,12.87,0,0,0-.91-4.55,9.6,9.6,0,0,0-2.15-3.26,8.57,8.57,0,0,0-3.07-1.91,10.23,10.23,0,0,0-3.54-.62,8.83,8.83,0,0,0-6.46,2.73,11.66,11.66,0,0,0-3.12,7.61Z"/><path class="cls-1" d="M145.73,311.05l-16.86-47.12h13.89l9.86,31.12,10-31.12H175.7l-16.95,47.12Z"/><path class="cls-1" d="M190,290.74a13.43,13.43,0,0,0,3.12,8.53,9.48,9.48,0,0,0,7.42,3.16,10.5,10.5,0,0,0,5.41-1.39,6.33,6.33,0,0,0,3-3.88h12.83a20.63,20.63,0,0,1-7.66,11.2,21.7,21.7,0,0,1-13,3.93q-23.55,0-23.56-25.67a29.66,29.66,0,0,1,1.54-9.86,21.25,21.25,0,0,1,4.45-7.57,19.35,19.35,0,0,1,7.13-4.83,26,26,0,0,1,9.68-1.68q10.92,0,16.52,7t5.6,21.07Zm19.64-7.85a13.33,13.33,0,0,0-.91-4.55,9.62,9.62,0,0,0-2.16-3.26,8.45,8.45,0,0,0-3.06-1.91,10.25,10.25,0,0,0-3.55-.62,8.83,8.83,0,0,0-6.46,2.73,11.6,11.6,0,0,0-3.11,7.61Z"/><path class="cls-1" d="M256.44,311.05V282.51q0-5.46-1.82-7.38c-1.22-1.27-3.29-1.91-6.23-1.91q-9.67,0-9.67,10.82v27H226.27V263.93h11.87v6.89a15.12,15.12,0,0,1,5.85-6.08,21.25,21.25,0,0,1,15.61-1.05,13.19,13.19,0,0,1,4.93,3,14.51,14.51,0,0,1,3.25,4.94,17.64,17.64,0,0,1,1.2,6.75v32.66Z"/><path class="cls-1" d="M300.68,280h11.59v13.4a23.18,23.18,0,0,1-1.1,7.14,16.77,16.77,0,0,1-3.45,6,16.33,16.33,0,0,1-5.94,4.17,21.77,21.77,0,0,1-8.57,1.53,22.71,22.71,0,0,1-8.81-1.53,16.74,16.74,0,0,1-6-4.12,15.84,15.84,0,0,1-3.4-6,24.88,24.88,0,0,1-1.05-7.28V251.19h12.26v12.74h26v8.81h-26v19.34A12.2,12.2,0,0,0,287.9,299c1.11,1.62,3,2.44,5.5,2.44a6.4,6.4,0,0,0,5.51-2.4q1.77-2.38,1.77-6.8Z"/><path class="cls-2" d="M276.55,140.42c-113.28,94.88-152.82-38.19-73.06-90,33.17-21.55,81.08-27.8,68.45,33.39C297,10.75,223,18.59,184.69,43.31A110.43,110.43,0,0,0,135,124.62c-8,77.66,74.8,125.85,153.84,71.84C345.16,157.94,323.64,101,276.55,140.42Z"/><path class="cls-3" d="M134.22,100.6a112.62,112.62,0,0,0-5.43,36.62,239.6,239.6,0,0,1-35.58-10.38c-41.74-15.62-15.84-54.07,24.71-33.29A134.2,134.2,0,0,0,134.22,100.6Zm118.18-59c39,16.47-14.76,70.78-83.37,66.26-2.37,10.75-2.45,22.56.86,33.12C261.86,137.87,291.44,52.28,252.4,41.57Z"/><path class="cls-4" d="M133.42,103.2a112.24,112.24,0,0,0-4.63,34,239.6,239.6,0,0,1-35.58-10.38c-36.13-13.52-21.56-44.24,9.28-38.66C112.6,90,121.94,96.56,133.42,103.2Zm34.14,14.32A62,62,0,0,0,169.9,141c62.57-2.1,96.26-42.39,99.11-71.31C262.85,112.1,204.31,126.28,167.56,117.52Z"/><path class="cls-5" d="M290.12,164.35c-58.91,58.26-151.51,37.41-144.59-41.41,3.52-40,30.16-71.59,58.84-87.09a107.4,107.4,0,0,0-67.07,89c-2.62,25.5,4.67,50.52,23.15,68.72C184.61,217.37,219.5,222,251,212.39c25.57-7.78,58.24-28,67.14-54.36C327.34,130.65,298.52,156.05,290.12,164.35Z"/><path class="cls-6" d="M74.62,102.22C71.93,113.47,85.27,121.38,94,124.65a238.44,238.44,0,0,0,32.4,9.68A110.7,110.7,0,0,1,127.74,118a161.2,161.2,0,0,1-27.12-7.53C93.3,107.72,76.07,96.18,74.62,102.22Z"/></svg>